<svg width="12" height="14" viewBox="0 0 12 14" fill="none" xmlns="http://www.w3.org/2000/svg">
<path d="M10.4688 5H9.65625V3.83203C9.65625 1.80078 8.03125 0.150391 6 0.125C3.96875 0.125 2.34375 1.77539 2.34375 3.78125V5H1.53125C0.845703 5 0.3125 5.55859 0.3125 6.21875V11.9062C0.3125 12.5918 0.845703 13.125 1.53125 13.125H10.4688C11.1289 13.125 11.6875 12.5918 11.6875 11.9062V6.21875C11.6875 5.55859 11.1289 5 10.4688 5ZM3.5625 3.78125C3.5625 2.46094 4.6543 1.34375 6 1.34375C7.32031 1.34375 8.4375 2.46094 8.4375 3.78125V5H3.5625V3.78125ZM10.4688 11.9062H1.53125V6.21875H10.4688V11.9062Z" fill="#878A9D"/>
</svg>
