<svg width="12" height="14" viewBox="0 0 12 14" fill="none" xmlns="http://www.w3.org/2000/svg">
<path d="M10.4688 6.71875H3.5625V4.33203C3.5625 2.98633 4.62891 1.86914 5.97461 1.84375C7.32031 1.84375 8.4375 2.93555 8.4375 4.28125V4.89062C8.4375 5.24609 8.69141 5.5 9.04688 5.5C9.37695 5.5 9.65625 5.24609 9.65625 4.89062V4.33203C9.65625 2.30078 8.03125 0.650391 6 0.625C3.96875 0.625 2.34375 2.27539 2.34375 4.28125V6.71875H1.53125C0.845703 6.71875 0.3125 7.27734 0.3125 7.9375V12.4062C0.3125 13.0918 0.845703 13.625 1.53125 13.625H10.4688C11.1289 13.625 11.6875 13.0918 11.6875 12.4062V7.9375C11.6875 7.27734 11.1289 6.71875 10.4688 6.71875ZM10.4688 12.4062H1.53125V7.9375H10.4688V12.4062Z" fill="#cac32f"/>
</svg>
